<svg width="60" height="71" viewBox="0 0 157 41" fill="none" xmlns="http://www.w3.org/2000/svg">
<g clip-path="url(#clip0_50_276)">
<path d="M50.2188 31.7381L52.1681 27.2341C54.2746 28.798 57.0726 29.6113 59.8396 29.6113C61.8832 29.6113 63.1724 28.8293 63.1724 27.641C63.1409 24.3256 50.9418 26.9214 50.8475 18.6018C50.816 14.3796 54.5892 11.1268 59.9339 11.1268C63.1095 11.1268 66.2851 11.9086 68.5488 13.6913L66.7252 18.2891C64.6501 16.9754 62.0721 16.0373 59.6195 16.0373C57.9531 16.0373 56.8529 16.819 56.8529 17.82C56.8843 21.0728 69.1778 19.2901 69.3035 27.2341C69.3035 31.5505 65.625 34.5844 60.3429 34.5844C56.4754 34.5844 52.9225 33.6772 50.2188 31.7381ZM125.017 25.6077L130.394 28.5791C128.381 32.1759 124.546 34.5844 120.112 34.5844C113.604 34.5844 108.322 29.3299 108.322 22.8556C108.322 16.3812 113.604 11.1268 120.112 11.1268C124.514 11.1268 128.381 13.5662 130.394 17.1321L125.017 20.1031C124.042 18.4142 122.219 17.2571 120.112 17.2571C117 17.2571 114.484 19.7591 114.484 22.8556C114.484 25.952 117 28.454 120.112 28.454C122.219 28.454 124.042 27.2967 125.017 25.6077H125.017ZM72.0073 1.39966H78.7357V34.1463H72.0073V1.39966ZM133.035 1.39966H139.763V20.6347L147.372 11.5959H155.609L146.208 22.48L156.364 34.1463H147.749L139.763 24.3256V34.1463H133.035V1.39966ZM98.7325 25.6706V20.1344C97.7577 18.508 95.7455 17.2571 93.4818 17.2571C90.3688 17.2571 87.8539 19.7591 87.8539 22.8556C87.8539 25.952 90.3688 28.454 93.4818 28.454C95.7455 28.454 97.7577 27.2654 98.7325 25.6703V25.6706ZM98.7325 11.5962H105.461V34.1153H98.7325V31.4569C97.6319 33.3022 94.8964 34.5847 92.0355 34.5847C86.1243 34.5847 81.4713 29.3302 81.4713 22.8246C81.4713 16.319 86.1243 11.1271 92.0355 11.1271C94.8964 11.1271 97.6319 12.4095 98.7325 14.2548V11.5956V11.5962Z" fill="#037B35"/>
<path d="M8.62085 25.6389C8.62085 27.922 6.76584 29.7676 4.47043 29.7676C3.92525 29.7681 3.38533 29.6617 2.88156 29.4544C2.37779 29.2471 1.92006 28.9429 1.53458 28.5595C1.1491 28.176 0.843432 27.7206 0.635072 27.2195C0.426713 26.7183 0.319753 26.1812 0.320315 25.6389C0.320315 23.3558 2.17532 21.5105 4.47043 21.5105H8.62085V25.6389ZM10.6959 25.6389C10.6959 23.3558 12.5509 21.5105 14.846 21.5105C17.1411 21.5105 18.9964 23.3558 18.9964 25.6389V35.9602C18.9964 38.2433 17.1414 40.0889 14.846 40.0889C14.3009 40.0893 13.761 39.9829 13.2572 39.7756C12.7535 39.5682 12.2958 39.2641 11.9104 38.8806C11.5249 38.4971 11.2193 38.0418 11.0109 37.5407C10.8026 37.0395 10.6956 36.5025 10.6962 35.9602V25.6389H10.6959Z" fill="#037B35"/>
<path d="M14.8462 9.06275C14.3011 9.06323 13.7612 8.95676 13.2574 8.74944C12.7537 8.54211 12.296 8.238 11.9106 7.85452C11.5251 7.47103 11.2195 7.01569 11.0111 6.51456C10.8028 6.01343 10.6958 5.47635 10.6964 4.93405C10.6961 2.65096 12.5511 0.805664 14.8462 0.805664C17.1413 0.805664 18.9966 2.65096 18.9966 4.93405V9.06275H14.8462ZM14.8462 11.1582C17.1413 11.1582 18.9966 13.0035 18.9966 15.2866C18.9966 17.5697 17.1416 19.4153 14.8462 19.4153H4.43918C3.894 19.4158 3.35408 19.3094 2.85031 19.1021C2.34654 18.8948 1.88881 18.5907 1.50333 18.2072C1.11785 17.8237 0.812182 17.3683 0.603822 16.8672C0.395463 16.366 0.288503 15.8289 0.289065 15.2866C0.289065 13.0035 2.14407 11.1585 4.43918 11.1585H14.8465L14.8462 11.1582Z" fill="#037B35"/>
<path d="M31.4791 15.2866C31.4791 13.0035 33.3341 11.1582 35.6292 11.1582C37.9243 11.1582 39.7796 13.0035 39.7796 15.2866C39.7796 17.5697 37.9246 19.4153 35.6292 19.4153H31.4791V15.2866ZM29.4037 15.2866C29.4037 17.5697 27.549 19.4153 25.2536 19.4153C24.7085 19.4158 24.1685 19.3094 23.6648 19.1021C23.161 18.8948 22.7033 18.5907 22.3178 18.2072C21.9323 17.8237 21.6266 17.3683 21.4183 16.8672C21.2099 16.366 21.103 15.8289 21.1035 15.2866V4.93405C21.1035 2.65096 22.9585 0.805664 25.2536 0.805664C27.5487 0.805664 29.404 2.65096 29.404 4.93405V15.2869L29.4037 15.2866Z" fill="#037B35"/>
<path d="M25.2536 31.8318C27.5487 31.8318 29.404 33.6771 29.404 35.9602C29.404 38.2433 27.549 40.0889 25.2536 40.0889C24.7085 40.0894 24.1685 39.9829 23.6648 39.7756C23.161 39.5683 22.7033 39.2642 22.3178 38.8807C21.9323 38.4972 21.6266 38.0419 21.4183 37.5407C21.2099 37.0396 21.103 36.5025 21.1035 35.9602V31.8318H25.2536ZM25.2536 29.7673C24.7085 29.7678 24.1686 29.6614 23.6648 29.4541C23.1611 29.2468 22.7034 28.9427 22.3179 28.5593C21.9324 28.1758 21.6267 27.7205 21.4184 27.2194C21.21 26.7183 21.103 26.1812 21.1035 25.6389C21.1035 23.3558 22.9585 21.5105 25.2536 21.5105H35.661C37.9561 21.5105 39.8111 23.3558 39.8111 25.6389C39.8111 27.922 37.9561 29.7676 35.6607 29.7676H25.2536V29.7673Z" fill="#037B35"/>
</g>
<defs>
<clipPath id="clip0_50_276">
<rect width="156.263" height="39.4684" fill="white" transform="translate(0.289062 0.805664)"/>
</clipPath>
</defs>
</svg>
