<svg width="21" height="26" viewBox="0 0 157 36" fill="none" xmlns="http://www.w3.org/2000/svg">
<g clip-path="url(#clip0_50_289)">
<path d="M91.3673 14.0732H85.216V14.7208C87.14 14.7208 87.4494 15.13 87.4494 17.5518V21.9177C87.4494 24.3392 87.1403 24.7827 85.216 24.7827C83.7388 24.5782 82.7417 23.7934 81.3674 22.2928L79.7865 20.5876C81.9168 20.212 83.0509 18.8822 83.0509 17.3813C83.0509 15.506 81.4364 14.0735 78.4118 14.0735H72.364V14.7208C74.288 14.7208 74.5974 15.13 74.5974 17.5518V21.9177C74.5974 24.3392 74.288 24.7827 72.364 24.7827V25.4306H79.202V24.7824C77.278 24.7824 76.9689 24.3392 76.9689 21.9177V20.69H77.5527L81.3671 25.4306H91.3673C96.281 25.4306 98.4116 22.8389 98.4116 19.7346C98.4116 16.631 96.2813 14.0732 91.3673 14.0732ZM76.9692 19.6323V15.0964H78.3777C79.9238 15.0964 80.6114 16.1536 80.6114 17.3816C80.6114 18.5754 79.9238 19.6323 78.3777 19.6323H76.9692ZM91.4704 24.3735H91.2296C89.993 24.3735 89.8211 24.0666 89.8211 22.4975V15.0964H91.4704C95.0443 15.0964 95.6968 17.6881 95.6968 19.7007C95.6968 21.7811 95.0437 24.3735 91.4704 24.3735ZM53.2243 20.8948L55.5954 13.9366C56.283 11.9243 55.9735 11.3448 53.7742 11.3448V10.6624H60.2344V11.3448C58.0696 11.3448 57.5545 11.8561 56.6953 14.3461L52.7775 26.0104H52.331L48.8254 15.3345L45.2515 26.0104H44.8047L40.9909 14.3461C40.1663 11.8561 39.6163 11.3448 37.623 11.3448V10.6624H45.2518V11.3448C43.2244 11.3448 42.6741 11.8222 43.3962 13.9366L45.6983 20.8945L49.1691 10.6624H49.8222L53.2243 20.8948ZM64.9073 25.8738C61.1274 25.8738 58.0348 23.1112 58.0348 19.7343C58.0348 16.3923 61.1277 13.6291 64.9073 13.6291C68.6875 13.6291 71.7798 16.3923 71.7798 19.7343C71.7798 23.1112 68.6875 25.8738 64.9073 25.8738ZM64.9073 14.6872C61.7461 14.6872 60.6464 17.5176 60.6464 19.7346C60.6464 21.9862 61.7461 24.7827 64.9073 24.7827C68.1034 24.7827 69.203 21.9862 69.203 19.7346C69.203 17.5176 68.1034 14.6872 64.9073 14.6872Z" fill="#037B35"/>
<path d="M106.899 24.7485V25.4307H99.0293V24.7485C101.332 24.7485 101.744 24.1688 101.744 20.7576V15.3012C101.744 11.8898 101.332 11.3446 99.0293 11.3446V10.6621H106.143C109.682 10.6621 111.641 12.4699 111.641 14.8917C111.641 17.2453 109.682 19.0868 106.143 19.0868H104.184V20.7573C104.184 24.1688 104.596 24.7485 106.899 24.7485ZM106.143 11.8898H104.184V17.8248H106.143C108.067 17.8248 108.961 16.4947 108.961 14.8917C108.961 13.2548 108.067 11.8898 106.143 11.8898ZM135.248 22.2247L135.076 22.8387C134.767 23.964 134.389 24.3735 131.949 24.3735H131.468C129.681 24.3735 129.372 23.964 129.372 21.5428V19.9737C132.053 19.9737 132.259 20.2124 132.259 21.9863H132.912V16.9037H132.259C132.259 18.6772 132.053 18.9159 129.372 18.9159V15.0962H131.261C133.702 15.0962 134.079 15.5057 134.389 16.631L134.561 17.2787H135.11L134.87 14.0729H124.767V14.7206C126.691 14.7206 127.001 15.1298 127.001 17.5516V21.9175C127.001 24.1327 126.738 24.6907 125.221 24.7703C123.779 24.5516 122.789 23.771 121.434 22.2925L119.853 20.5874C121.984 20.2118 123.118 18.882 123.118 17.3811C123.118 15.5057 121.503 14.0732 118.479 14.0732H112.432V14.7206C114.356 14.7206 114.665 15.1298 114.665 17.5516V21.9175C114.665 24.339 114.356 24.7825 112.432 24.7825V25.4304H119.27V24.7822C117.346 24.7822 117.036 24.339 117.036 21.9175V20.6901H117.621L121.435 25.4307H135.558L135.764 22.225H135.248V22.2247ZM117.036 19.6323V15.0965H118.445C119.991 15.0965 120.679 16.1536 120.679 17.3817C120.679 18.5754 119.991 19.6323 118.445 19.6323H117.036ZM142.224 25.8739C140.849 25.8739 139.647 25.1578 139.131 24.714C138.959 24.8848 138.65 25.3965 138.582 25.8739H137.929V21.1675H138.616C138.891 23.4181 140.472 24.7485 142.499 24.7485C143.599 24.7485 144.492 24.1348 144.492 23.1116C144.492 22.225 143.702 21.5425 142.293 20.8949L140.334 19.974C138.959 19.3255 137.929 18.1998 137.929 16.6995C137.929 15.0625 139.475 13.6643 141.606 13.6643C142.74 13.6643 143.701 14.0735 144.286 14.5509C144.458 14.4146 144.63 14.039 144.733 13.6295H145.386V17.6549H144.664C144.423 16.0516 143.53 14.7215 141.709 14.7215C140.747 14.7215 139.853 15.2673 139.853 16.1203C139.853 17.007 140.575 17.484 142.224 18.2347L144.114 19.1555C145.764 19.9398 146.416 21.2023 146.416 22.2253C146.416 24.3738 144.526 25.8742 142.224 25.8742V25.8739ZM152.808 25.8739C151.433 25.8739 150.23 25.1578 149.715 24.714C149.543 24.8848 149.234 25.3965 149.166 25.8739H148.513V21.1675H149.2C149.474 23.4181 151.055 24.7485 153.083 24.7485C154.182 24.7485 155.076 24.1348 155.076 23.1116C155.076 22.225 154.285 21.5425 152.876 20.8949L150.918 19.974C149.543 19.3255 148.512 18.1998 148.512 16.6995C148.512 15.0625 150.058 13.6643 152.189 13.6643C153.323 13.6643 154.285 14.0735 154.87 14.5509C155.041 14.4146 155.213 14.039 155.316 13.6295H155.969V17.6549H155.247C155.007 16.0516 154.113 14.7215 152.293 14.7215C151.33 14.7215 150.436 15.2673 150.436 16.1203C150.436 17.007 151.158 17.484 152.808 18.2347L154.698 19.1555C156.347 19.9398 157 21.2023 157 22.2253C157 24.3738 155.11 25.8742 152.808 25.8742V25.8739Z" fill="#037B35"/>
<path d="M3.25801 17.8161C3.25801 23.7908 6.75652 28.9537 11.8293 31.4006L4.57465 11.6733C3.70499 13.6062 3.25632 15.6995 3.25801 17.8164V17.8161ZM28.7325 17.0546C28.7325 15.1892 28.0574 13.8973 27.4781 12.8916C26.7072 11.6485 25.9847 10.5955 25.9847 9.35237C25.9847 7.96472 27.045 6.67309 28.5384 6.67309C28.6058 6.67309 28.6696 6.68157 28.7355 6.68521C26.0299 4.22494 22.4252 2.72309 18.4658 2.72309C13.1529 2.72309 8.47877 5.42842 5.75944 9.52655C6.11652 9.53684 6.45255 9.54442 6.73821 9.54442C8.32892 9.54442 10.7913 9.35267 10.7913 9.35267C11.611 9.30481 11.7075 10.4998 10.8889 10.5961C10.8889 10.5961 10.0649 10.6925 9.14807 10.74L14.6862 27.0892L18.0141 17.1827L15.6449 10.7397C14.826 10.6919 14.0502 10.5955 14.0502 10.5955C13.2304 10.548 13.3269 9.30421 14.146 9.35237C14.146 9.35237 16.6578 9.54381 18.1521 9.54381C19.7422 9.54381 22.2051 9.35237 22.2051 9.35237C23.0252 9.30421 23.1217 10.4992 22.3025 10.5955C22.3025 10.5955 21.4769 10.6919 20.562 10.7394L26.0577 26.965L27.5745 21.9336C28.2319 19.8462 28.7325 18.3468 28.7325 17.0546ZM18.7326 19.1365L14.1698 32.296C15.5648 32.7038 17.0116 32.9109 18.4658 32.9109C20.1859 32.9115 21.8936 32.6221 23.516 32.0552C23.4739 31.9892 23.4377 31.9197 23.4079 31.8474L18.7326 19.1365ZM31.8101 10.5746C31.8754 11.0554 31.9127 11.5712 31.9127 12.1268C31.9127 13.6583 31.6242 15.3801 30.7559 17.5329L26.1108 30.8632C30.632 28.2464 33.673 23.3849 33.673 17.8167C33.6734 15.1923 32.9979 12.7247 31.8101 10.5746ZM18.4658 0.221924C8.69119 0.221924 0.738281 8.11466 0.738281 17.8161C0.738281 27.5191 8.69119 35.4115 18.4658 35.4115C28.2405 35.4115 36.1943 27.5191 36.1943 17.8161C36.1943 8.11466 28.2405 0.221924 18.4658 0.221924ZM18.4658 34.6048C9.13953 34.6048 1.55103 27.0735 1.55103 17.8161C1.55103 8.55964 9.13922 1.02858 18.4658 1.02858C27.7921 1.02858 35.38 8.55964 35.38 17.8161C35.38 27.0735 27.7921 34.6048 18.4658 34.6048Z" fill="#037B35"/>
</g>
<defs>
<clipPath id="clip0_50_289">
<rect width="156.263" height="35.441" fill="white" transform="translate(0.738281 0.221924)"/>
</clipPath>
</defs>
</svg>
